<svg width="321" height="58" viewBox="0 0 321 58" fill="none" xmlns="http://www.w3.org/2000/svg">
<path d="M15.0943 25.2C16.8863 25.2 18.2516 24.7947 19.1903 23.984C20.1716 23.1307 20.6623 21.8507 20.6623 20.144C20.6623 18.5227 20.1503 17.2853 19.1263 16.432C18.1449 15.536 16.6943 15.088 14.7743 15.088C14.0916 15.088 13.5156 15.1093 13.0463 15.152C12.6196 15.152 12.1716 15.1947 11.7023 15.28V25.2H15.0943ZM11.7663 45.744C11.2969 45.872 10.5503 46 9.52625 46.128C8.54492 46.256 7.56358 46.32 6.58225 46.32C5.60092 46.32 4.72625 46.2347 3.95825 46.064C3.23292 45.936 2.61425 45.68 2.10225 45.296C1.59025 44.912 1.20625 44.3787 0.95025 43.696C0.69425 43.0133 0.56625 42.1173 0.56625 41.008V10.864C0.56625 9.968 0.800917 9.28533 1.27025 8.816C1.78225 8.304 2.46492 7.89866 3.31825 7.6C4.76892 7.088 6.41158 6.72533 8.24625 6.512C10.1236 6.256 12.0009 6.128 13.8783 6.128C19.7663 6.128 24.2676 7.38667 27.3823 9.904C30.4969 12.4213 32.0543 15.8347 32.0543 20.144C32.0543 22.2347 31.7129 24.1333 31.0303 25.84C30.3903 27.504 29.4089 28.9547 28.0863 30.192C26.8063 31.3867 25.1636 32.3253 23.1583 33.008C21.1956 33.648 18.9129 33.968 16.3103 33.968H11.7663V45.744ZM36.0408 6.256C36.0408 4.63466 36.5741 3.26933 37.6408 2.16C38.7501 1.05066 40.2008 0.495998 41.9928 0.495998C43.7848 0.495998 45.2141 1.05066 46.2808 2.16C47.3901 3.26933 47.9448 4.63466 47.9448 6.256C47.9448 7.87733 47.3901 9.24267 46.2808 10.352C45.2141 11.4613 43.7848 12.016 41.9928 12.016C40.2008 12.016 38.7501 11.4613 37.6408 10.352C36.5741 9.24267 36.0408 7.87733 36.0408 6.256ZM47.4328 45.936C46.9634 46.0213 46.2594 46.128 45.3208 46.256C44.4248 46.4267 43.5074 46.512 42.5688 46.512C41.6301 46.512 40.7768 46.448 40.0088 46.32C39.2834 46.192 38.6648 45.936 38.1528 45.552C37.6408 45.168 37.2354 44.656 36.9368 44.016C36.6808 43.3333 36.5528 42.4587 36.5528 41.392V15.344C37.0221 15.2587 37.7048 15.152 38.6008 15.024C39.5394 14.8533 40.4781 14.768 41.4167 14.768C42.3554 14.768 43.1874 14.832 43.9128 14.96C44.6808 15.088 45.3208 15.344 45.8328 15.728C46.3448 16.112 46.7288 16.6453 46.9848 17.328C47.2834 17.968 47.4328 18.8213 47.4328 19.888V45.936ZM52.6313 19.952C52.9726 18.3307 53.6339 17.008 54.6153 15.984C55.6393 14.96 56.8979 14.448 58.3913 14.448C59.7993 14.448 60.8873 14.7893 61.6553 15.472C62.4233 16.1547 63.2766 17.1147 64.2153 18.352L68.3113 23.728L75.1593 14.448C77.5059 14.448 79.3619 14.8747 80.7273 15.728C82.0926 16.5387 82.7753 17.648 82.7753 19.056C82.7753 19.6107 82.6899 20.1227 82.5193 20.592C82.3913 21.0187 82.1779 21.4667 81.8793 21.936C81.5806 22.4053 81.1966 22.9387 80.7273 23.536C80.2579 24.1333 79.7033 24.8373 79.0633 25.648L74.8393 30.384L83.2233 41.456C83.0099 43.0773 82.3699 44.3573 81.3033 45.296C80.2366 46.2347 78.9566 46.704 77.4633 46.704C75.8419 46.6613 74.5406 46.192 73.5593 45.296C72.6206 44.4 71.7033 43.312 70.8073 42.032L67.3513 37.104L60.8233 46.512C60.6099 46.512 60.3753 46.512 60.1193 46.512C59.8633 46.5547 59.6499 46.576 59.4792 46.576C57.3032 46.576 55.6393 46.128 54.4873 45.232C53.3779 44.336 52.8233 43.2267 52.8233 41.904C52.8233 40.88 53.0579 39.984 53.5273 39.216C54.0393 38.4053 54.8926 37.3173 56.0873 35.952L61.2073 30L52.6313 19.952ZM99.3868 30.576C97.5094 29.936 95.8028 29.296 94.2668 28.656C92.7308 27.9733 91.4081 27.1627 90.2988 26.224C89.1894 25.2853 88.3148 24.176 87.6748 22.896C87.0774 21.5733 86.7788 19.9733 86.7788 18.096C86.7788 14.4693 88.1654 11.568 90.9388 9.392C93.7548 7.216 97.6801 6.128 102.715 6.128C104.549 6.128 106.256 6.256 107.835 6.512C109.413 6.768 110.757 7.17333 111.867 7.728C113.019 8.24 113.915 8.92266 114.555 9.776C115.195 10.5867 115.515 11.5467 115.515 12.656C115.515 13.7653 115.259 14.7253 114.747 15.536C114.235 16.304 113.616 16.9653 112.891 17.52C111.952 16.9227 110.693 16.4107 109.115 15.984C107.536 15.5147 105.808 15.28 103.931 15.28C102.011 15.28 100.603 15.5573 99.7068 16.112C98.8108 16.624 98.3628 17.2853 98.3628 18.096C98.3628 18.736 98.6401 19.2693 99.1948 19.696C99.7494 20.08 100.581 20.4427 101.691 20.784L105.083 21.872C109.093 23.152 112.165 24.7947 114.299 26.8C116.475 28.7627 117.563 31.4507 117.563 34.864C117.563 38.4907 116.133 41.4347 113.275 43.696C110.416 45.9147 106.213 47.024 100.667 47.024C98.7041 47.024 96.8694 46.8533 95.1628 46.512C93.4988 46.2133 92.0268 45.7653 90.7468 45.168C89.5094 44.528 88.5281 43.76 87.8028 42.864C87.1201 41.9253 86.7788 40.8587 86.7788 39.664C86.7788 38.4267 87.1414 37.3813 87.8668 36.528C88.5921 35.632 89.3814 34.9493 90.2348 34.48C91.4294 35.4187 92.8801 36.2293 94.5868 36.912C96.3361 37.5947 98.2348 37.936 100.283 37.936C102.373 37.936 103.845 37.616 104.699 36.976C105.552 36.336 105.979 35.5893 105.979 34.736C105.979 33.8827 105.637 33.2427 104.955 32.816C104.272 32.3467 103.312 31.8987 102.075 31.472L99.3868 30.576ZM139.37 47.024C136.852 47.024 134.506 46.6827 132.33 46C130.196 45.2747 128.319 44.208 126.698 42.8C125.119 41.392 123.86 39.6213 122.922 37.488C122.026 35.3547 121.578 32.8587 121.578 30C121.578 27.184 122.026 24.7733 122.922 22.768C123.86 20.72 125.076 19.056 126.57 17.776C128.063 16.4533 129.77 15.4933 131.69 14.896C133.61 14.256 135.572 13.936 137.578 13.936C139.839 13.936 141.887 14.2773 143.722 14.96C145.599 15.6427 147.199 16.5813 148.522 17.776C149.887 18.9707 150.932 20.4 151.658 22.064C152.426 23.728 152.81 25.5413 152.81 27.504C152.81 28.9547 152.404 30.064 151.594 30.832C150.783 31.6 149.652 32.0907 148.202 32.304L132.394 34.672C132.863 36.08 133.823 37.1467 135.274 37.872C136.724 38.5547 138.388 38.896 140.266 38.896C142.015 38.896 143.658 38.6827 145.194 38.256C146.772 37.7867 148.052 37.2533 149.034 36.656C149.716 37.0827 150.292 37.68 150.762 38.448C151.231 39.216 151.466 40.0267 151.466 40.88C151.466 42.8 150.57 44.2293 148.778 45.168C147.412 45.8933 145.876 46.384 144.17 46.64C142.463 46.896 140.863 47.024 139.37 47.024ZM137.578 21.872C136.554 21.872 135.658 22.0427 134.89 22.384C134.164 22.7253 133.567 23.1733 133.098 23.728C132.628 24.24 132.266 24.8373 132.01 25.52C131.796 26.16 131.668 26.8213 131.626 27.504L142.57 25.712C142.442 24.8587 141.972 24.0053 141.162 23.152C140.351 22.2987 139.156 21.872 137.578 21.872ZM173.215 13.936C175.647 13.936 177.844 14.256 179.807 14.896C181.812 15.4933 183.497 16.2827 184.863 17.264C185.716 17.8613 186.377 18.5227 186.847 19.248C187.359 19.9733 187.615 20.912 187.615 22.064V44.464C187.615 46.7253 187.188 48.6667 186.335 50.288C185.481 51.952 184.308 53.3173 182.815 54.384C181.364 55.4933 179.636 56.304 177.631 56.816C175.668 57.328 173.556 57.584 171.295 57.584C167.412 57.584 164.361 57.0507 162.143 55.984C159.924 54.96 158.815 53.2747 158.815 50.928C158.815 49.9467 159.007 49.072 159.391 48.304C159.817 47.5787 160.287 47.024 160.799 46.64C162.036 47.3227 163.423 47.8987 164.959 48.368C166.537 48.8373 168.159 49.072 169.823 49.072C172.127 49.072 173.961 48.688 175.327 47.92C176.692 47.152 177.375 45.9147 177.375 44.208V43.184C175.625 43.952 173.492 44.336 170.975 44.336C169.055 44.336 167.22 44.0587 165.471 43.504C163.764 42.9067 162.249 42.0107 160.927 40.816C159.647 39.5787 158.601 38 157.791 36.08C157.023 34.16 156.639 31.8773 156.639 29.232C156.639 26.6293 157.044 24.368 157.855 22.448C158.708 20.528 159.86 18.9493 161.311 17.712C162.804 16.432 164.553 15.4933 166.559 14.896C168.607 14.256 170.825 13.936 173.215 13.936ZM177.183 23.216C176.884 23.0453 176.436 22.8747 175.839 22.704C175.284 22.5333 174.58 22.448 173.727 22.448C171.636 22.448 170.057 23.0453 168.991 24.24C167.967 25.392 167.455 27.056 167.455 29.232C167.455 31.7067 167.967 33.4987 168.991 34.608C170.057 35.6747 171.401 36.208 173.023 36.208C174.772 36.208 176.159 35.8027 177.183 34.992V23.216ZM194.359 15.344C194.786 15.216 195.447 15.088 196.343 14.96C197.282 14.832 198.242 14.768 199.223 14.768C200.162 14.768 200.994 14.832 201.719 14.96C202.487 15.088 203.127 15.344 203.639 15.728C204.151 16.112 204.535 16.6453 204.791 17.328C205.09 17.968 205.239 18.8213 205.239 19.888V33.648C205.239 35.3973 205.666 36.656 206.519 37.424C207.373 38.1493 208.61 38.512 210.231 38.512C211.213 38.512 212.002 38.4267 212.599 38.256C213.239 38.0853 213.73 37.9147 214.071 37.744V15.344C214.498 15.216 215.159 15.088 216.055 14.96C216.994 14.832 217.954 14.768 218.935 14.768C219.874 14.768 220.706 14.832 221.431 14.96C222.199 15.088 222.839 15.344 223.351 15.728C223.863 16.112 224.247 16.6453 224.503 17.328C224.802 17.968 224.951 18.8213 224.951 19.888V39.344C224.951 41.4773 224.055 43.0773 222.263 44.144C220.77 45.0827 218.978 45.7867 216.887 46.256C214.839 46.768 212.599 47.024 210.167 47.024C207.863 47.024 205.73 46.768 203.767 46.256C201.847 45.744 200.183 44.9547 198.775 43.888C197.367 42.8213 196.279 41.456 195.511 39.792C194.743 38.0853 194.359 36.0373 194.359 33.648V15.344ZM242.489 45.936C242.063 46.064 241.38 46.192 240.441 46.32C239.545 46.448 238.607 46.512 237.625 46.512C236.687 46.512 235.833 46.448 235.065 46.32C234.34 46.192 233.721 45.936 233.209 45.552C232.697 45.168 232.292 44.656 231.993 44.016C231.737 43.3333 231.609 42.4587 231.609 41.392V22.192C231.609 21.2107 231.78 20.3787 232.121 19.696C232.505 18.9707 233.039 18.3307 233.721 17.776C234.404 17.2213 235.236 16.7307 236.217 16.304C237.241 15.8347 238.329 15.4293 239.481 15.088C240.633 14.7467 241.828 14.4907 243.065 14.32C244.303 14.1067 245.54 14 246.777 14C248.825 14 250.447 14.4053 251.641 15.216C252.836 15.984 253.433 17.264 253.433 19.056C253.433 19.6533 253.348 20.2507 253.177 20.848C253.007 21.4027 252.793 21.9147 252.537 22.384C251.641 22.384 250.724 22.4267 249.785 22.512C248.847 22.5973 247.929 22.7253 247.033 22.896C246.137 23.0667 245.284 23.2587 244.473 23.472C243.705 23.6427 243.044 23.856 242.489 24.112V45.936ZM288.926 30.448C288.926 33.0933 288.521 35.4613 287.71 37.552C286.9 39.6 285.748 41.328 284.254 42.736C282.804 44.144 281.054 45.2107 279.006 45.936C276.958 46.6613 274.676 47.024 272.158 47.024C269.641 47.024 267.358 46.64 265.31 45.872C263.262 45.104 261.492 44.016 259.998 42.608C258.548 41.1573 257.417 39.408 256.606 37.36C255.796 35.312 255.39 33.008 255.39 30.448C255.39 27.9307 255.796 25.648 256.606 23.6C257.417 21.552 258.548 19.824 259.998 18.416C261.492 16.9653 263.262 15.856 265.31 15.088C267.358 14.32 269.641 13.936 272.158 13.936C274.676 13.936 276.958 14.3413 279.006 15.152C281.054 15.92 282.804 17.0293 284.254 18.48C285.748 19.888 286.9 21.616 287.71 23.664C288.521 25.712 288.926 27.9733 288.926 30.448ZM266.526 30.448C266.526 33.0507 267.017 35.056 267.998 36.464C269.022 37.8293 270.43 38.512 272.222 38.512C274.014 38.512 275.38 37.808 276.318 36.4C277.3 34.992 277.79 33.008 277.79 30.448C277.79 27.888 277.3 25.9253 276.318 24.56C275.337 23.152 273.95 22.448 272.158 22.448C270.366 22.448 268.98 23.152 267.998 24.56C267.017 25.9253 266.526 27.888 266.526 30.448ZM320.474 36.72C320.474 39.9627 319.258 42.5013 316.826 44.336C314.394 46.1707 310.81 47.088 306.074 47.088C304.282 47.088 302.618 46.96 301.082 46.704C299.546 46.448 298.224 46.064 297.114 45.552C296.048 44.9973 295.194 44.3147 294.554 43.504C293.957 42.6933 293.658 41.7333 293.658 40.624C293.658 39.6 293.872 38.7467 294.298 38.064C294.725 37.3387 295.237 36.7413 295.834 36.272C297.072 36.9547 298.48 37.5733 300.058 38.128C301.68 38.64 303.536 38.896 305.626 38.896C306.949 38.896 307.952 38.704 308.634 38.32C309.36 37.936 309.722 37.424 309.722 36.784C309.722 36.1867 309.466 35.7173 308.954 35.376C308.442 35.0347 307.589 34.7573 306.394 34.544L304.474 34.16C300.762 33.4347 297.989 32.304 296.154 30.768C294.362 29.1893 293.466 26.9493 293.466 24.048C293.466 22.4693 293.808 21.04 294.49 19.76C295.173 18.48 296.133 17.4133 297.37 16.56C298.608 15.7067 300.08 15.0453 301.786 14.576C303.536 14.1067 305.456 13.872 307.546 13.872C309.125 13.872 310.597 14 311.962 14.256C313.37 14.4693 314.586 14.8107 315.61 15.28C316.634 15.7493 317.445 16.368 318.042 17.136C318.64 17.8613 318.938 18.736 318.938 19.76C318.938 20.7413 318.746 21.5947 318.362 22.32C318.021 23.0027 317.573 23.5787 317.018 24.048C316.677 23.8347 316.165 23.6213 315.482 23.408C314.8 23.152 314.053 22.9387 313.242 22.768C312.432 22.5547 311.6 22.384 310.746 22.256C309.936 22.128 309.189 22.064 308.506 22.064C307.098 22.064 306.01 22.2347 305.242 22.576C304.474 22.8747 304.09 23.3653 304.09 24.048C304.09 24.5173 304.304 24.9013 304.73 25.2C305.157 25.4987 305.968 25.776 307.162 26.032L309.146 26.48C313.242 27.4187 316.144 28.72 317.85 30.384C319.6 32.0053 320.474 34.1173 320.474 36.72Z" fill="#0D9488"/>
</svg>
