<svg width="321" height="58" viewBox="0 0 321 58" fill="none" xmlns="http://www.w3.org/2000/svg">
<path d="M15.5005 25.2C17.2925 25.2 18.6578 24.7947 19.5965 23.984C20.5778 23.1307 21.0685 21.8507 21.0685 20.144C21.0685 18.5227 20.5565 17.2853 19.5325 16.432C18.5512 15.536 17.1005 15.088 15.1805 15.088C14.4978 15.088 13.9218 15.1093 13.4525 15.152C13.0258 15.152 12.5778 15.1947 12.1085 15.28V25.2H15.5005ZM12.1725 45.744C11.7032 45.872 10.9565 46 9.9325 46.128C8.95117 46.256 7.96983 46.32 6.9885 46.32C6.00717 46.32 5.1325 46.2347 4.3645 46.064C3.63917 45.936 3.0205 45.68 2.5085 45.296C1.9965 44.912 1.6125 44.3787 1.3565 43.696C1.1005 43.0133 0.9725 42.1173 0.9725 41.008V10.864C0.9725 9.968 1.20717 9.28533 1.6765 8.816C2.1885 8.304 2.87117 7.89866 3.7245 7.6C5.17517 7.088 6.81783 6.72533 8.6525 6.512C10.5298 6.256 12.4072 6.128 14.2845 6.128C20.1725 6.128 24.6738 7.38667 27.7885 9.904C30.9032 12.4213 32.4605 15.8347 32.4605 20.144C32.4605 22.2347 32.1192 24.1333 31.4365 25.84C30.7965 27.504 29.8152 28.9547 28.4925 30.192C27.2125 31.3867 25.5698 32.3253 23.5645 33.008C21.6018 33.648 19.3192 33.968 16.7165 33.968H12.1725V45.744ZM36.447 6.256C36.447 4.63466 36.9803 3.26933 38.047 2.16C39.1563 1.05066 40.607 0.495998 42.399 0.495998C44.191 0.495998 45.6203 1.05066 46.687 2.16C47.7963 3.26933 48.351 4.63466 48.351 6.256C48.351 7.87733 47.7963 9.24267 46.687 10.352C45.6203 11.4613 44.191 12.016 42.399 12.016C40.607 12.016 39.1563 11.4613 38.047 10.352C36.9803 9.24267 36.447 7.87733 36.447 6.256ZM47.839 45.936C47.3697 46.0213 46.6657 46.128 45.727 46.256C44.831 46.4267 43.9137 46.512 42.975 46.512C42.0363 46.512 41.183 46.448 40.415 46.32C39.6897 46.192 39.071 45.936 38.559 45.552C38.047 45.168 37.6417 44.656 37.343 44.016C37.087 43.3333 36.959 42.4587 36.959 41.392V15.344C37.4283 15.2587 38.111 15.152 39.007 15.024C39.9457 14.8533 40.8843 14.768 41.823 14.768C42.7617 14.768 43.5937 14.832 44.319 14.96C45.087 15.088 45.727 15.344 46.239 15.728C46.751 16.112 47.135 16.6453 47.391 17.328C47.6897 17.968 47.839 18.8213 47.839 19.888V45.936ZM53.0375 19.952C53.3788 18.3307 54.0402 17.008 55.0215 15.984C56.0455 14.96 57.3042 14.448 58.7975 14.448C60.2055 14.448 61.2935 14.7893 62.0615 15.472C62.8295 16.1547 63.6828 17.1147 64.6215 18.352L68.7175 23.728L75.5655 14.448C77.9122 14.448 79.7682 14.8747 81.1335 15.728C82.4988 16.5387 83.1815 17.648 83.1815 19.056C83.1815 19.6107 83.0962 20.1227 82.9255 20.592C82.7975 21.0187 82.5842 21.4667 82.2855 21.936C81.9868 22.4053 81.6028 22.9387 81.1335 23.536C80.6642 24.1333 80.1095 24.8373 79.4695 25.648L75.2455 30.384L83.6295 41.456C83.4162 43.0773 82.7762 44.3573 81.7095 45.296C80.6428 46.2347 79.3628 46.704 77.8695 46.704C76.2482 46.6613 74.9468 46.192 73.9655 45.296C73.0268 44.4 72.1095 43.312 71.2135 42.032L67.7575 37.104L61.2295 46.512C61.0162 46.512 60.7815 46.512 60.5255 46.512C60.2695 46.5547 60.0562 46.576 59.8855 46.576C57.7095 46.576 56.0455 46.128 54.8935 45.232C53.7842 44.336 53.2295 43.2267 53.2295 41.904C53.2295 40.88 53.4642 39.984 53.9335 39.216C54.4455 38.4053 55.2988 37.3173 56.4935 35.952L61.6135 30L53.0375 19.952ZM99.793 30.576C97.9157 29.936 96.209 29.296 94.673 28.656C93.137 27.9733 91.8143 27.1627 90.705 26.224C89.5957 25.2853 88.721 24.176 88.081 22.896C87.4837 21.5733 87.185 19.9733 87.185 18.096C87.185 14.4693 88.5717 11.568 91.345 9.392C94.161 7.216 98.0863 6.128 103.121 6.128C104.956 6.128 106.662 6.256 108.241 6.512C109.82 6.768 111.164 7.17333 112.273 7.728C113.425 8.24 114.321 8.92266 114.961 9.776C115.601 10.5867 115.921 11.5467 115.921 12.656C115.921 13.7653 115.665 14.7253 115.153 15.536C114.641 16.304 114.022 16.9653 113.297 17.52C112.358 16.9227 111.1 16.4107 109.521 15.984C107.942 15.5147 106.214 15.28 104.337 15.28C102.417 15.28 101.009 15.5573 100.113 16.112C99.217 16.624 98.769 17.2853 98.769 18.096C98.769 18.736 99.0463 19.2693 99.601 19.696C100.156 20.08 100.988 20.4427 102.097 20.784L105.489 21.872C109.5 23.152 112.572 24.7947 114.705 26.8C116.881 28.7627 117.969 31.4507 117.969 34.864C117.969 38.4907 116.54 41.4347 113.681 43.696C110.822 45.9147 106.62 47.024 101.073 47.024C99.1103 47.024 97.2757 46.8533 95.569 46.512C93.905 46.2133 92.433 45.7653 91.153 45.168C89.9157 44.528 88.9343 43.76 88.209 42.864C87.5263 41.9253 87.185 40.8587 87.185 39.664C87.185 38.4267 87.5477 37.3813 88.273 36.528C88.9983 35.632 89.7877 34.9493 90.641 34.48C91.8357 35.4187 93.2863 36.2293 94.993 36.912C96.7423 37.5947 98.641 37.936 100.689 37.936C102.78 37.936 104.252 37.616 105.105 36.976C105.958 36.336 106.385 35.5893 106.385 34.736C106.385 33.8827 106.044 33.2427 105.361 32.816C104.678 32.3467 103.718 31.8987 102.481 31.472L99.793 30.576ZM139.776 47.024C137.259 47.024 134.912 46.6827 132.736 46C130.603 45.2747 128.725 44.208 127.104 42.8C125.525 41.392 124.267 39.6213 123.328 37.488C122.432 35.3547 121.984 32.8587 121.984 30C121.984 27.184 122.432 24.7733 123.328 22.768C124.267 20.72 125.483 19.056 126.976 17.776C128.469 16.4533 130.176 15.4933 132.096 14.896C134.016 14.256 135.979 13.936 137.984 13.936C140.245 13.936 142.293 14.2773 144.128 14.96C146.005 15.6427 147.605 16.5813 148.928 17.776C150.293 18.9707 151.339 20.4 152.064 22.064C152.832 23.728 153.216 25.5413 153.216 27.504C153.216 28.9547 152.811 30.064 152 30.832C151.189 31.6 150.059 32.0907 148.608 32.304L132.8 34.672C133.269 36.08 134.229 37.1467 135.68 37.872C137.131 38.5547 138.795 38.896 140.672 38.896C142.421 38.896 144.064 38.6827 145.6 38.256C147.179 37.7867 148.459 37.2533 149.44 36.656C150.123 37.0827 150.699 37.68 151.168 38.448C151.637 39.216 151.872 40.0267 151.872 40.88C151.872 42.8 150.976 44.2293 149.184 45.168C147.819 45.8933 146.283 46.384 144.576 46.64C142.869 46.896 141.269 47.024 139.776 47.024ZM137.984 21.872C136.96 21.872 136.064 22.0427 135.296 22.384C134.571 22.7253 133.973 23.1733 133.504 23.728C133.035 24.24 132.672 24.8373 132.416 25.52C132.203 26.16 132.075 26.8213 132.032 27.504L142.976 25.712C142.848 24.8587 142.379 24.0053 141.568 23.152C140.757 22.2987 139.563 21.872 137.984 21.872ZM173.621 13.936C176.053 13.936 178.25 14.256 180.213 14.896C182.218 15.4933 183.904 16.2827 185.269 17.264C186.122 17.8613 186.784 18.5227 187.253 19.248C187.765 19.9733 188.021 20.912 188.021 22.064V44.464C188.021 46.7253 187.594 48.6667 186.741 50.288C185.888 51.952 184.714 53.3173 183.221 54.384C181.77 55.4933 180.042 56.304 178.037 56.816C176.074 57.328 173.962 57.584 171.701 57.584C167.818 57.584 164.768 57.0507 162.549 55.984C160.33 54.96 159.221 53.2747 159.221 50.928C159.221 49.9467 159.413 49.072 159.797 48.304C160.224 47.5787 160.693 47.024 161.205 46.64C162.442 47.3227 163.829 47.8987 165.365 48.368C166.944 48.8373 168.565 49.072 170.229 49.072C172.533 49.072 174.368 48.688 175.733 47.92C177.098 47.152 177.781 45.9147 177.781 44.208V43.184C176.032 43.952 173.898 44.336 171.381 44.336C169.461 44.336 167.626 44.0587 165.877 43.504C164.17 42.9067 162.656 42.0107 161.333 40.816C160.053 39.5787 159.008 38 158.197 36.08C157.429 34.16 157.045 31.8773 157.045 29.232C157.045 26.6293 157.45 24.368 158.261 22.448C159.114 20.528 160.266 18.9493 161.717 17.712C163.21 16.432 164.96 15.4933 166.965 14.896C169.013 14.256 171.232 13.936 173.621 13.936ZM177.589 23.216C177.29 23.0453 176.842 22.8747 176.245 22.704C175.69 22.5333 174.986 22.448 174.133 22.448C172.042 22.448 170.464 23.0453 169.397 24.24C168.373 25.392 167.861 27.056 167.861 29.232C167.861 31.7067 168.373 33.4987 169.397 34.608C170.464 35.6747 171.808 36.208 173.429 36.208C175.178 36.208 176.565 35.8027 177.589 34.992V23.216ZM194.766 15.344C195.192 15.216 195.854 15.088 196.75 14.96C197.688 14.832 198.648 14.768 199.63 14.768C200.568 14.768 201.4 14.832 202.126 14.96C202.894 15.088 203.534 15.344 204.046 15.728C204.558 16.112 204.942 16.6453 205.198 17.328C205.496 17.968 205.646 18.8213 205.646 19.888V33.648C205.646 35.3973 206.072 36.656 206.926 37.424C207.779 38.1493 209.016 38.512 210.638 38.512C211.619 38.512 212.408 38.4267 213.006 38.256C213.646 38.0853 214.136 37.9147 214.478 37.744V15.344C214.904 15.216 215.566 15.088 216.462 14.96C217.4 14.832 218.36 14.768 219.342 14.768C220.28 14.768 221.112 14.832 221.838 14.96C222.606 15.088 223.246 15.344 223.757 15.728C224.27 16.112 224.654 16.6453 224.91 17.328C225.208 17.968 225.358 18.8213 225.358 19.888V39.344C225.358 41.4773 224.462 43.0773 222.67 44.144C221.176 45.0827 219.384 45.7867 217.294 46.256C215.246 46.768 213.006 47.024 210.574 47.024C208.27 47.024 206.136 46.768 204.174 46.256C202.254 45.744 200.59 44.9547 199.182 43.888C197.774 42.8213 196.686 41.456 195.918 39.792C195.15 38.0853 194.766 36.0373 194.766 33.648V15.344ZM242.896 45.936C242.469 46.064 241.786 46.192 240.848 46.32C239.952 46.448 239.013 46.512 238.032 46.512C237.093 46.512 236.24 46.448 235.472 46.32C234.746 46.192 234.128 45.936 233.616 45.552C233.104 45.168 232.698 44.656 232.4 44.016C232.144 43.3333 232.016 42.4587 232.016 41.392V22.192C232.016 21.2107 232.186 20.3787 232.528 19.696C232.912 18.9707 233.445 18.3307 234.128 17.776C234.81 17.2213 235.642 16.7307 236.624 16.304C237.648 15.8347 238.736 15.4293 239.888 15.088C241.04 14.7467 242.234 14.4907 243.472 14.32C244.709 14.1067 245.946 14 247.184 14C249.232 14 250.853 14.4053 252.048 15.216C253.242 15.984 253.84 17.264 253.84 19.056C253.84 19.6533 253.754 20.2507 253.584 20.848C253.413 21.4027 253.2 21.9147 252.944 22.384C252.048 22.384 251.13 22.4267 250.192 22.512C249.253 22.5973 248.336 22.7253 247.44 22.896C246.544 23.0667 245.69 23.2587 244.88 23.472C244.112 23.6427 243.45 23.856 242.896 24.112V45.936ZM289.333 30.448C289.333 33.0933 288.927 35.4613 288.117 37.552C287.306 39.6 286.154 41.328 284.661 42.736C283.21 44.144 281.461 45.2107 279.413 45.936C277.365 46.6613 275.082 47.024 272.565 47.024C270.047 47.024 267.765 46.64 265.717 45.872C263.669 45.104 261.898 44.016 260.405 42.608C258.954 41.1573 257.823 39.408 257.013 37.36C256.202 35.312 255.797 33.008 255.797 30.448C255.797 27.9307 256.202 25.648 257.013 23.6C257.823 21.552 258.954 19.824 260.405 18.416C261.898 16.9653 263.669 15.856 265.717 15.088C267.765 14.32 270.047 13.936 272.565 13.936C275.082 13.936 277.365 14.3413 279.413 15.152C281.461 15.92 283.21 17.0293 284.661 18.48C286.154 19.888 287.306 21.616 288.117 23.664C288.927 25.712 289.333 27.9733 289.333 30.448ZM266.933 30.448C266.933 33.0507 267.423 35.056 268.405 36.464C269.429 37.8293 270.837 38.512 272.628 38.512C274.421 38.512 275.786 37.808 276.725 36.4C277.706 34.992 278.197 33.008 278.197 30.448C278.197 27.888 277.706 25.9253 276.725 24.56C275.743 23.152 274.357 22.448 272.565 22.448C270.773 22.448 269.386 23.152 268.405 24.56C267.423 25.9253 266.933 27.888 266.933 30.448ZM320.881 36.72C320.881 39.9627 319.665 42.5013 317.233 44.336C314.801 46.1707 311.217 47.088 306.481 47.088C304.689 47.088 303.025 46.96 301.489 46.704C299.953 46.448 298.63 46.064 297.521 45.552C296.454 44.9973 295.601 44.3147 294.961 43.504C294.363 42.6933 294.065 41.7333 294.065 40.624C294.065 39.6 294.278 38.7467 294.705 38.064C295.131 37.3387 295.643 36.7413 296.241 36.272C297.478 36.9547 298.886 37.5733 300.465 38.128C302.086 38.64 303.942 38.896 306.033 38.896C307.355 38.896 308.358 38.704 309.041 38.32C309.766 37.936 310.128 37.424 310.128 36.784C310.128 36.1867 309.873 35.7173 309.361 35.376C308.849 35.0347 307.995 34.7573 306.801 34.544L304.881 34.16C301.169 33.4347 298.395 32.304 296.561 30.768C294.769 29.1893 293.873 26.9493 293.873 24.048C293.873 22.4693 294.214 21.04 294.897 19.76C295.579 18.48 296.539 17.4133 297.777 16.56C299.014 15.7067 300.486 15.0453 302.193 14.576C303.942 14.1067 305.862 13.872 307.953 13.872C309.531 13.872 311.003 14 312.369 14.256C313.777 14.4693 314.993 14.8107 316.017 15.28C317.041 15.7493 317.851 16.368 318.449 17.136C319.046 17.8613 319.345 18.736 319.345 19.76C319.345 20.7413 319.153 21.5947 318.769 22.32C318.427 23.0027 317.979 23.5787 317.425 24.048C317.083 23.8347 316.571 23.6213 315.889 23.408C315.206 23.152 314.459 22.9387 313.649 22.768C312.838 22.5547 312.006 22.384 311.153 22.256C310.342 22.128 309.595 22.064 308.913 22.064C307.505 22.064 306.417 22.2347 305.649 22.576C304.881 22.8747 304.497 23.3653 304.497 24.048C304.497 24.5173 304.71 24.9013 305.137 25.2C305.563 25.4987 306.374 25.776 307.569 26.032L309.553 26.48C313.649 27.4187 316.55 28.72 318.257 30.384C320.006 32.0053 320.881 34.1173 320.881 36.72Z" fill="#0D9488"/>
</svg>
