<svg width="1479" height="310" viewBox="0 0 1479 310" fill="none" xmlns="http://www.w3.org/2000/svg">
<path d="M207.697 122.25C214.137 122.25 219.044 120.793 222.417 117.88C225.944 114.813 227.707 110.213 227.707 104.08C227.707 98.2533 225.867 93.8067 222.187 90.74C218.66 87.52 213.447 85.91 206.547 85.91C204.094 85.91 202.024 85.9867 200.337 86.14C198.804 86.14 197.194 86.2933 195.507 86.6V122.25H207.697ZM195.737 196.08C194.05 196.54 191.367 197 187.687 197.46C184.16 197.92 180.634 198.15 177.107 198.15C173.58 198.15 170.437 197.843 167.677 197.23C165.07 196.77 162.847 195.85 161.007 194.47C159.167 193.09 157.787 191.173 156.867 188.72C155.947 186.267 155.487 183.047 155.487 179.06V70.73C155.487 67.51 156.33 65.0567 158.017 63.37C159.857 61.53 162.31 60.0733 165.377 59C170.59 57.16 176.494 55.8567 183.087 55.09C189.834 54.17 196.58 53.71 203.327 53.71C224.487 53.71 240.664 58.2333 251.857 67.28C263.05 76.3267 268.647 88.5933 268.647 104.08C268.647 111.593 267.42 118.417 264.967 124.55C262.667 130.53 259.14 135.743 254.387 140.19C249.787 144.483 243.884 147.857 236.677 150.31C229.624 152.61 221.42 153.76 212.067 153.76H195.737V196.08ZM282.973 54.17C282.973 48.3433 284.89 43.4367 288.723 39.45C292.71 35.4633 297.923 33.47 304.363 33.47C310.803 33.47 315.94 35.4633 319.773 39.45C323.76 43.4367 325.753 48.3433 325.753 54.17C325.753 59.9967 323.76 64.9033 319.773 68.89C315.94 72.8767 310.803 74.87 304.363 74.87C297.923 74.87 292.71 72.8767 288.723 68.89C284.89 64.9033 282.973 59.9967 282.973 54.17ZM323.913 196.77C322.227 197.077 319.697 197.46 316.323 197.92C313.103 198.533 309.807 198.84 306.433 198.84C303.06 198.84 299.993 198.61 297.233 198.15C294.627 197.69 292.403 196.77 290.563 195.39C288.723 194.01 287.267 192.17 286.193 189.87C285.273 187.417 284.813 184.273 284.813 180.44V86.83C286.5 86.5233 288.953 86.14 292.173 85.68C295.547 85.0667 298.92 84.76 302.293 84.76C305.667 84.76 308.657 84.99 311.263 85.45C314.023 85.91 316.323 86.83 318.163 88.21C320.003 89.59 321.383 91.5067 322.303 93.96C323.377 96.26 323.913 99.3267 323.913 103.16V196.77ZM342.596 103.39C343.822 97.5633 346.199 92.81 349.726 89.13C353.406 85.45 357.929 83.61 363.296 83.61C368.356 83.61 372.266 84.8367 375.026 87.29C377.786 89.7433 380.852 93.1933 384.226 97.64L398.946 116.96L423.556 83.61C431.989 83.61 438.659 85.1433 443.566 88.21C448.472 91.1233 450.926 95.11 450.926 100.17C450.926 102.163 450.619 104.003 450.006 105.69C449.546 107.223 448.779 108.833 447.706 110.52C446.632 112.207 445.252 114.123 443.566 116.27C441.879 118.417 439.886 120.947 437.586 123.86L422.406 140.88L452.536 180.67C451.769 186.497 449.469 191.097 445.636 194.47C441.802 197.843 437.202 199.53 431.836 199.53C426.009 199.377 421.332 197.69 417.806 194.47C414.432 191.25 411.136 187.34 407.916 182.74L395.496 165.03L372.036 198.84C371.269 198.84 370.426 198.84 369.506 198.84C368.586 198.993 367.819 199.07 367.206 199.07C359.386 199.07 353.406 197.46 349.266 194.24C345.279 191.02 343.286 187.033 343.286 182.28C343.286 178.6 344.129 175.38 345.816 172.62C347.656 169.707 350.722 165.797 355.016 160.89L373.416 139.5L342.596 103.39ZM510.623 141.57C503.876 139.27 497.743 136.97 492.223 134.67C486.703 132.217 481.95 129.303 477.963 125.93C473.976 122.557 470.833 118.57 468.533 113.97C466.386 109.217 465.313 103.467 465.313 96.72C465.313 83.6867 470.296 73.26 480.263 65.44C490.383 57.62 504.49 53.71 522.583 53.71C529.176 53.71 535.31 54.17 540.983 55.09C546.656 56.01 551.486 57.4667 555.473 59.46C559.613 61.3 562.833 63.7533 565.133 66.82C567.433 69.7333 568.583 73.1833 568.583 77.17C568.583 81.1567 567.663 84.6067 565.823 87.52C563.983 90.28 561.76 92.6567 559.153 94.65C555.78 92.5033 551.256 90.6633 545.583 89.13C539.91 87.4433 533.7 86.6 526.953 86.6C520.053 86.6 514.993 87.5967 511.773 89.59C508.553 91.43 506.943 93.8067 506.943 96.72C506.943 99.02 507.94 100.937 509.933 102.47C511.926 103.85 514.916 105.153 518.903 106.38L531.093 110.29C545.506 114.89 556.546 120.793 564.213 128C572.033 135.053 575.943 144.713 575.943 156.98C575.943 170.013 570.806 180.593 560.533 188.72C550.26 196.693 535.156 200.68 515.223 200.68C508.17 200.68 501.576 200.067 495.443 198.84C489.463 197.767 484.173 196.157 479.573 194.01C475.126 191.71 471.6 188.95 468.993 185.73C466.54 182.357 465.313 178.523 465.313 174.23C465.313 169.783 466.616 166.027 469.223 162.96C471.83 159.74 474.666 157.287 477.733 155.6C482.026 158.973 487.24 161.887 493.373 164.34C499.66 166.793 506.483 168.02 513.843 168.02C521.356 168.02 526.646 166.87 529.713 164.57C532.78 162.27 534.313 159.587 534.313 156.52C534.313 153.453 533.086 151.153 530.633 149.62C528.18 147.933 524.73 146.323 520.283 144.79L510.623 141.57ZM654.312 200.68C645.265 200.68 636.832 199.453 629.012 197C621.345 194.393 614.599 190.56 608.772 185.5C603.099 180.44 598.575 174.077 595.202 166.41C591.982 158.743 590.372 149.773 590.372 139.5C590.372 129.38 591.982 120.717 595.202 113.51C598.575 106.15 602.945 100.17 608.312 95.57C613.679 90.8167 619.812 87.3667 626.712 85.22C633.612 82.92 640.665 81.77 647.872 81.77C655.999 81.77 663.359 82.9967 669.952 85.45C676.699 87.9033 682.449 91.2767 687.202 95.57C692.109 99.8633 695.865 105 698.472 110.98C701.232 116.96 702.612 123.477 702.612 130.53C702.612 135.743 701.155 139.73 698.242 142.49C695.329 145.25 691.265 147.013 686.052 147.78L629.242 156.29C630.929 161.35 634.379 165.183 639.592 167.79C644.805 170.243 650.785 171.47 657.532 171.47C663.819 171.47 669.722 170.703 675.242 169.17C680.915 167.483 685.515 165.567 689.042 163.42C691.495 164.953 693.565 167.1 695.252 169.86C696.939 172.62 697.782 175.533 697.782 178.6C697.782 185.5 694.562 190.637 688.122 194.01C683.215 196.617 677.695 198.38 671.562 199.3C665.429 200.22 659.679 200.68 654.312 200.68ZM647.872 110.29C644.192 110.29 640.972 110.903 638.212 112.13C635.605 113.357 633.459 114.967 631.772 116.96C630.085 118.8 628.782 120.947 627.862 123.4C627.095 125.7 626.635 128.077 626.482 130.53L665.812 124.09C665.352 121.023 663.665 117.957 660.752 114.89C657.839 111.823 653.545 110.29 647.872 110.29ZM775.943 81.77C784.683 81.77 792.579 82.92 799.633 85.22C806.839 87.3667 812.896 90.2033 817.803 93.73C820.869 95.8767 823.246 98.2533 824.933 100.86C826.773 103.467 827.693 106.84 827.693 110.98V191.48C827.693 199.607 826.159 206.583 823.093 212.41C820.026 218.39 815.809 223.297 810.443 227.13C805.229 231.117 799.019 234.03 791.813 235.87C784.759 237.71 777.169 238.63 769.043 238.63C755.089 238.63 744.126 236.713 736.153 232.88C728.179 229.2 724.193 223.143 724.193 214.71C724.193 211.183 724.883 208.04 726.263 205.28C727.796 202.673 729.483 200.68 731.323 199.3C735.769 201.753 740.753 203.823 746.273 205.51C751.946 207.197 757.773 208.04 763.753 208.04C772.033 208.04 778.626 206.66 783.533 203.9C788.439 201.14 790.893 196.693 790.893 190.56V186.88C784.606 189.64 776.939 191.02 767.893 191.02C760.993 191.02 754.399 190.023 748.113 188.03C741.979 185.883 736.536 182.663 731.783 178.37C727.183 173.923 723.426 168.25 720.513 161.35C717.753 154.45 716.373 146.247 716.373 136.74C716.373 127.387 717.829 119.26 720.743 112.36C723.809 105.46 727.949 99.7867 733.163 95.34C738.529 90.74 744.816 87.3667 752.023 85.22C759.383 82.92 767.356 81.77 775.943 81.77ZM790.203 115.12C789.129 114.507 787.519 113.893 785.373 113.28C783.379 112.667 780.849 112.36 777.783 112.36C770.269 112.36 764.596 114.507 760.763 118.8C757.083 122.94 755.243 128.92 755.243 136.74C755.243 145.633 757.083 152.073 760.763 156.06C764.596 159.893 769.426 161.81 775.253 161.81C781.539 161.81 786.523 160.353 790.203 157.44V115.12ZM851.931 86.83C853.464 86.37 855.841 85.91 859.061 85.45C862.434 84.99 865.884 84.76 869.411 84.76C872.784 84.76 875.774 84.99 878.381 85.45C881.141 85.91 883.441 86.83 885.281 88.21C887.121 89.59 888.501 91.5067 889.421 93.96C890.494 96.26 891.031 99.3267 891.031 103.16V152.61C891.031 158.897 892.564 163.42 895.631 166.18C898.697 168.787 903.144 170.09 908.971 170.09C912.497 170.09 915.334 169.783 917.481 169.17C919.781 168.557 921.544 167.943 922.771 167.33V86.83C924.304 86.37 926.681 85.91 929.901 85.45C933.274 84.99 936.724 84.76 940.251 84.76C943.624 84.76 946.614 84.99 949.221 85.45C951.981 85.91 954.281 86.83 956.121 88.21C957.961 89.59 959.341 91.5067 960.261 93.96C961.334 96.26 961.871 99.3267 961.871 103.16V173.08C961.871 180.747 958.651 186.497 952.211 190.33C946.844 193.703 940.404 196.233 932.891 197.92C925.531 199.76 917.481 200.68 908.741 200.68C900.461 200.68 892.794 199.76 885.741 197.92C878.841 196.08 872.861 193.243 867.801 189.41C862.741 185.577 858.831 180.67 856.071 174.69C853.311 168.557 851.931 161.197 851.931 152.61V86.83ZM1024.9 196.77C1023.36 197.23 1020.91 197.69 1017.54 198.15C1014.32 198.61 1010.94 198.84 1007.42 198.84C1004.04 198.84 1000.98 198.61 998.218 198.15C995.611 197.69 993.388 196.77 991.548 195.39C989.708 194.01 988.251 192.17 987.178 189.87C986.258 187.417 985.798 184.273 985.798 180.44V111.44C985.798 107.913 986.411 104.923 987.638 102.47C989.018 99.8633 990.934 97.5633 993.388 95.57C995.841 93.5767 998.831 91.8133 1002.36 90.28C1006.04 88.5933 1009.95 87.1367 1014.09 85.91C1018.23 84.6833 1022.52 83.7633 1026.97 83.15C1031.41 82.3833 1035.86 82 1040.31 82C1047.67 82 1053.49 83.4567 1057.79 86.37C1062.08 89.13 1064.23 93.73 1064.23 100.17C1064.23 102.317 1063.92 104.463 1063.31 106.61C1062.69 108.603 1061.93 110.443 1061.01 112.13C1057.79 112.13 1054.49 112.283 1051.12 112.59C1047.74 112.897 1044.45 113.357 1041.23 113.97C1038.01 114.583 1034.94 115.273 1032.03 116.04C1029.27 116.653 1026.89 117.42 1024.9 118.34V196.77ZM1191.78 141.11C1191.78 150.617 1190.32 159.127 1187.41 166.64C1184.5 174 1180.36 180.21 1174.99 185.27C1169.78 190.33 1163.49 194.163 1156.13 196.77C1148.77 199.377 1140.57 200.68 1131.52 200.68C1122.47 200.68 1114.27 199.3 1106.91 196.54C1099.55 193.78 1093.19 189.87 1087.82 184.81C1082.61 179.597 1078.54 173.31 1075.63 165.95C1072.72 158.59 1071.26 150.31 1071.26 141.11C1071.26 132.063 1072.72 123.86 1075.63 116.5C1078.54 109.14 1082.61 102.93 1087.82 97.87C1093.19 92.6567 1099.55 88.67 1106.91 85.91C1114.27 83.15 1122.47 81.77 1131.52 81.77C1140.57 81.77 1148.77 83.2267 1156.13 86.14C1163.49 88.9 1169.78 92.8867 1174.99 98.1C1180.36 103.16 1184.5 109.37 1187.41 116.73C1190.32 124.09 1191.78 132.217 1191.78 141.11ZM1111.28 141.11C1111.28 150.463 1113.04 157.67 1116.57 162.73C1120.25 167.637 1125.31 170.09 1131.75 170.09C1138.19 170.09 1143.1 167.56 1146.47 162.5C1150 157.44 1151.76 150.31 1151.76 141.11C1151.76 131.91 1150 124.857 1146.47 119.95C1142.94 114.89 1137.96 112.36 1131.52 112.36C1125.08 112.36 1120.1 114.89 1116.57 119.95C1113.04 124.857 1111.28 131.91 1111.28 141.11ZM1305.16 163.65C1305.16 175.303 1300.79 184.427 1292.05 191.02C1283.31 197.613 1270.43 200.91 1253.41 200.91C1246.97 200.91 1240.99 200.45 1235.47 199.53C1229.95 198.61 1225.19 197.23 1221.21 195.39C1217.37 193.397 1214.31 190.943 1212.01 188.03C1209.86 185.117 1208.79 181.667 1208.79 177.68C1208.79 174 1209.55 170.933 1211.09 168.48C1212.62 165.873 1214.46 163.727 1216.61 162.04C1221.05 164.493 1226.11 166.717 1231.79 168.71C1237.61 170.55 1244.28 171.47 1251.8 171.47C1256.55 171.47 1260.15 170.78 1262.61 169.4C1265.21 168.02 1266.52 166.18 1266.52 163.88C1266.52 161.733 1265.6 160.047 1263.76 158.82C1261.92 157.593 1258.85 156.597 1254.56 155.83L1247.66 154.45C1234.32 151.843 1224.35 147.78 1217.76 142.26C1211.32 136.587 1208.1 128.537 1208.1 118.11C1208.1 112.437 1209.32 107.3 1211.78 102.7C1214.23 98.1 1217.68 94.2667 1222.13 91.2C1226.57 88.1333 1231.86 85.7567 1238 84.07C1244.28 82.3833 1251.18 81.54 1258.7 81.54C1264.37 81.54 1269.66 82 1274.57 82.92C1279.63 83.6867 1284 84.9133 1287.68 86.6C1291.36 88.2867 1294.27 90.51 1296.42 93.27C1298.56 95.8767 1299.64 99.02 1299.64 102.7C1299.64 106.227 1298.95 109.293 1297.57 111.9C1296.34 114.353 1294.73 116.423 1292.74 118.11C1291.51 117.343 1289.67 116.577 1287.22 115.81C1284.76 114.89 1282.08 114.123 1279.17 113.51C1276.25 112.743 1273.26 112.13 1270.2 111.67C1267.28 111.21 1264.6 110.98 1262.15 110.98C1257.09 110.98 1253.18 111.593 1250.42 112.82C1247.66 113.893 1246.28 115.657 1246.28 118.11C1246.28 119.797 1247.04 121.177 1248.58 122.25C1250.11 123.323 1253.02 124.32 1257.32 125.24L1264.45 126.85C1279.17 130.223 1289.59 134.9 1295.73 140.88C1302.01 146.707 1305.16 154.297 1305.16 163.65Z" fill="#0D9488"/>
</svg>
